<svg width="72" height="13" viewBox="0 0 72 13" fill="none" xmlns="http://www.w3.org/2000/svg">
<path d="M8.70389 0.988062C6.41226 0.986511 4.02175 1.503 1.60759 2.17265C1.30126 2.2347 1.00153 2.43478 0.844097 2.68294C0.698689 2.91637 0.645566 3.15096 0.600199 3.39796C0.365607 4.71129 0.394301 6.00174 0.44277 7.42984C0.45324 7.7571 0.50326 8.14641 0.654872 8.38139C0.815403 8.61908 1.08799 8.77031 1.41487 8.82033C1.83481 8.88392 2.25242 8.93278 2.67081 8.97659L2.57853 11.5575C2.56302 11.7618 2.66461 11.9332 2.78908 12.0317C2.90114 12.1162 3.02561 12.1542 3.1524 12.1636C3.40677 12.1829 3.70689 12.0724 3.8554 11.7909C4.50683 10.5365 4.91552 9.98398 5.72904 9.15031C7.85393 9.20382 9.70779 9.08555 11.8059 8.92929C12.5481 8.91145 13.0584 8.30384 13.1933 7.81914C13.5946 6.56359 13.6582 5.01412 13.7005 3.44643C13.7187 2.82525 13.5035 2.21647 13.122 1.89386C12.7586 1.59994 12.3209 1.49408 11.918 1.38512C10.8001 1.13192 9.6822 0.995817 8.70351 0.988062H8.70389ZM11.7575 1.96947C12.1603 2.07882 12.5163 2.18467 12.7385 2.36653C13.1131 2.76321 13.1006 3.02843 13.0964 3.4569C13.0537 4.97612 12.9812 6.45153 12.6373 7.56943C12.4888 7.98588 12.2329 8.2829 11.7454 8.32672C9.60659 8.48569 7.75118 8.60861 5.60185 8.54619C5.56015 8.54494 5.51863 8.55221 5.47983 8.56754C5.44103 8.58287 5.40576 8.60595 5.37618 8.63537C4.4731 9.54737 4.01128 10.1825 3.32224 11.5075C3.30673 11.5377 3.27183 11.5559 3.2284 11.559C3.20126 11.5575 3.18885 11.5346 3.1873 11.5152L3.27959 8.71563C3.27991 8.64005 3.25276 8.56691 3.20318 8.50985C3.15361 8.45279 3.08499 8.41568 3.0101 8.40543C2.50821 8.35712 2.0077 8.29545 1.5091 8.22047C1.29389 8.18868 1.21518 8.12974 1.15624 8.0421C1.0531 7.79665 1.05465 7.64504 1.04728 7.41006C0.998423 5.99243 0.975934 4.7551 1.1923 3.52359C1.21363 3.34057 1.28187 3.15406 1.35438 2.99974C1.47459 2.81167 1.65761 2.78453 1.84218 2.73296C4.20206 2.08153 6.51075 1.59412 8.68567 1.59257C9.75199 1.63018 10.8699 1.73798 11.7575 1.96947V1.96947ZM3.6053 4.37045C3.27959 4.75976 3.31138 5.28827 3.56265 5.64267C3.69448 5.8288 3.89922 5.97731 4.14777 6.01104C4.47193 6.03818 4.67783 5.90635 4.89885 5.75629C5.30018 5.40808 5.34089 4.79892 5.03534 4.35843C4.96144 4.25071 4.86363 4.16154 4.74954 4.09791C4.63545 4.03427 4.50819 3.99789 4.37771 3.99161C4.02951 3.99472 3.79336 4.14943 3.6053 4.37045V4.37045ZM7.12224 4.05249C6.79846 4.06296 6.53634 4.28708 6.37581 4.52943C6.19357 4.80474 6.08655 5.15178 6.23467 5.49261C6.51967 6.14559 7.50418 6.13784 7.89659 5.47323C8.0765 5.1669 8.03114 4.8187 7.89659 4.56743C7.76165 4.31423 7.55846 4.10833 7.26338 4.06141C7.21672 4.054 7.16946 4.05101 7.12224 4.05249V4.05249ZM9.97767 4.11298C9.87607 4.11039 9.77458 4.12161 9.676 4.14633C9.28669 4.25102 8.95516 4.65196 9.00518 5.16574C9.03077 5.42476 9.14904 5.67757 9.36424 5.85012C9.57906 6.02461 9.88965 6.10178 10.2185 6.03508C10.5954 5.95753 10.8303 5.65314 10.9075 5.35961C10.9862 5.06569 10.9668 4.76712 10.785 4.52478C10.6907 4.39909 10.569 4.29664 10.4291 4.22527C10.2891 4.15389 10.1347 4.11548 9.97767 4.11298V4.11298ZM4.35173 4.59457C4.42308 4.59612 4.48046 4.61861 4.5394 4.70353C4.67124 4.89431 4.63479 5.18241 4.50179 5.29874C4.36995 5.4139 4.28659 5.42476 4.22765 5.417C4.16987 5.40808 4.11093 5.36853 4.05781 5.29447C3.95777 5.15178 3.92752 4.92184 4.06091 4.75665C4.13071 4.66282 4.26099 4.60349 4.35173 4.59457ZM7.16451 4.66127C7.17497 4.66282 7.30216 4.73688 7.36304 4.85049C7.42353 4.9641 7.43399 5.0688 7.37661 5.16574C7.20522 5.45655 6.8415 5.37745 6.78722 5.25182C6.76589 5.20335 6.7814 5.00947 6.88106 4.8598C6.9811 4.70818 7.10518 4.65196 7.16412 4.66127H7.16451ZM10.2983 4.88229C10.3166 4.90827 10.3619 5.07306 10.327 5.20335C10.2921 5.33518 10.2347 5.41545 10.0952 5.44414C9.91679 5.48214 9.81675 5.44414 9.74075 5.38365C9.66669 5.32316 9.61512 5.22002 9.60465 5.10951C9.5775 4.83692 9.67561 4.77333 9.83187 4.73223C10.0122 4.68686 10.2165 4.76557 10.2983 4.88229ZM17.4993 2.2091C17.5038 2.13231 17.5336 2.05918 17.5843 2.00127C17.6095 1.97107 17.6413 1.94706 17.6773 1.93106C17.7132 1.91507 17.7524 1.90751 17.7917 1.90898H19.817C19.8852 1.90898 19.9565 1.93767 20.0291 1.9939C20.063 2.01856 20.0905 2.05094 20.1094 2.08837C20.1283 2.1258 20.1379 2.16718 20.1376 2.2091V5.44143H23.5266V2.2091C23.5263 2.169 23.5341 2.12926 23.5496 2.09226C23.565 2.05525 23.5878 2.02175 23.6165 1.99376C23.6452 1.96577 23.6793 1.94387 23.7167 1.92937C23.7541 1.91486 23.794 1.90806 23.8341 1.90937H25.8314C25.9225 1.90937 26.0013 1.93186 26.0695 1.97723C26.1378 2.02259 26.1723 2.09549 26.1723 2.19514V11.7347C26.1723 11.8347 26.142 11.9092 26.0831 11.9588C26.0241 12.0088 25.9466 12.0344 25.8512 12.0344H23.8337C23.7527 12.0376 23.6734 12.0107 23.6111 11.9588C23.5549 11.9088 23.5262 11.8347 23.5262 11.7347V7.8618H20.138V11.7347C20.138 11.8301 20.1078 11.9045 20.0457 11.9557C19.9849 12.0088 19.9019 12.0344 19.7972 12.0344H17.7917C17.6009 12.0344 17.504 11.9452 17.4993 11.768V2.2091ZM36.1542 11.9181C36.1005 11.9651 36.0359 11.9979 35.9662 12.0135C35.9045 12.0268 35.8416 12.0338 35.7785 12.0344H34.7486C34.6668 12.0344 34.597 12.0193 34.5381 11.9906C34.4803 11.9617 34.4292 11.921 34.388 11.8712C34.3458 11.8192 34.311 11.7615 34.2849 11.6998C34.2574 11.6359 34.2346 11.57 34.2166 11.5028L34.0061 10.6304C33.9382 10.7715 33.8382 10.9305 33.7094 11.1108C33.5687 11.3007 33.4024 11.4703 33.2154 11.6149C32.9978 11.7818 32.7564 11.9151 32.4993 12.0104C32.222 12.1178 31.9041 12.1709 31.545 12.1709C31.027 12.1709 30.5562 12.0709 30.1336 11.8712C29.7194 11.6777 29.3507 11.3989 29.0517 11.053C28.7551 10.7079 28.5244 10.3035 28.3611 9.84323C28.1953 9.36846 28.1123 8.86875 28.1157 8.36588V3.90088C28.1157 3.72833 28.1521 3.59649 28.2281 3.50847C28.3018 3.41929 28.422 3.37508 28.5853 3.37508H30.1607C30.3557 3.37508 30.4891 3.40843 30.5636 3.47357C30.6361 3.54027 30.6722 3.66745 30.6722 3.85978V8.29802C30.6722 8.49345 30.7164 8.67802 30.804 8.85367C30.9838 9.20614 31.2836 9.48281 31.6493 9.63384C31.8343 9.71139 32.0219 9.75016 32.2131 9.75016C32.3763 9.75016 32.5462 9.71139 32.7203 9.63384C32.8959 9.55629 33.0565 9.45353 33.205 9.3248C33.3519 9.19451 33.4745 9.04174 33.5702 8.86725C33.6656 8.69159 33.7125 8.50663 33.7125 8.31159V3.87955C33.7125 3.80239 33.7277 3.72523 33.7564 3.64806C33.7819 3.57685 33.8284 3.51505 33.8898 3.47086C33.9487 3.43441 34.0049 3.40882 34.0565 3.39486C34.1092 3.38129 34.1697 3.37547 34.238 3.37547H35.7785C35.9739 3.37547 36.1147 3.422 36.2012 3.51778C36.2872 3.61316 36.3314 3.7419 36.3314 3.90088V11.5303C36.3314 11.6164 36.3117 11.6951 36.2721 11.768C36.2362 11.8388 36.1811 11.8981 36.1131 11.939L36.1542 11.9181ZM44.0699 10.9774C43.947 11.0999 43.8109 11.2318 43.6639 11.3729C43.5154 11.5137 43.3533 11.6455 43.1761 11.768C42.9989 11.8906 42.8077 11.9922 42.6034 12.0724C42.392 12.1524 42.1675 12.1925 41.9415 12.1907C41.3238 12.1907 40.7542 12.0755 40.2346 11.8437C39.7268 11.621 39.2697 11.2974 38.891 10.8925C38.5153 10.4896 38.2233 10.0154 38.0108 9.47021C37.8006 8.92502 37.6944 8.33874 37.6944 7.71174C37.6944 7.08008 37.8006 6.49225 38.0112 5.94861C38.2229 5.40653 38.5153 4.93386 38.8914 4.53098C39.2693 4.1261 39.7265 3.80338 40.2346 3.58292C40.7542 3.35414 41.3238 3.23898 41.9415 3.23898C42.1748 3.23623 42.4068 3.27307 42.6278 3.34794C42.8271 3.41684 43.0169 3.51051 43.1928 3.62674C43.3638 3.7419 43.52 3.86908 43.6639 4.01294C43.8062 4.15525 43.9427 4.296 44.0699 4.43249V1.31494C44.0699 1.16992 44.1137 1.04739 44.2017 0.947348C44.2909 0.847307 44.4243 0.797287 44.6011 0.797287H46.1358C46.1948 0.797287 46.2568 0.810858 46.322 0.835287C46.3886 0.860879 46.4491 0.895777 46.5038 0.941144C46.5581 0.986511 46.6023 1.04119 46.6356 1.10478C46.6705 1.16837 46.6872 1.23816 46.6872 1.31533V11.509C46.6872 11.8588 46.5038 12.0344 46.1358 12.0344H44.7981C44.7073 12.0344 44.6375 12.0228 44.5879 11.9995C44.5383 11.978 44.4949 11.9442 44.4619 11.9014C44.4232 11.8518 44.3921 11.7966 44.3696 11.7378C44.3425 11.6727 44.3076 11.5955 44.2665 11.509L44.0699 10.9774ZM40.1481 7.71174C40.1481 8.01147 40.195 8.29182 40.2893 8.55394C40.3756 8.80434 40.511 9.03502 40.6875 9.23251C40.86 9.42329 41.0675 9.5749 41.3118 9.68541C41.5537 9.79747 41.8236 9.85214 42.1187 9.85214C42.4095 9.85214 42.6836 9.80057 42.9411 9.69588C43.197 9.59119 43.4215 9.44772 43.6119 9.26276C43.8043 9.07584 43.9605 8.85499 44.0726 8.61133C44.1887 8.35835 44.2545 8.08522 44.2665 7.80712V7.71174C44.2665 7.42092 44.2122 7.14367 44.1032 6.88C43.9974 6.62179 43.8437 6.3859 43.6503 6.18476C43.456 5.9841 43.2244 5.82317 42.9686 5.71092C42.7009 5.59322 42.4112 5.53375 42.1187 5.53643C41.8236 5.53643 41.5537 5.59459 41.3114 5.71092C41.0723 5.8232 40.8597 5.98482 40.6875 6.18514C40.512 6.38952 40.3769 6.6253 40.2893 6.88C40.1946 7.14704 40.1469 7.42843 40.1481 7.71174V7.71174ZM54.6028 10.9774C54.4799 11.0999 54.3454 11.2318 54.1969 11.3729C54.0495 11.5137 53.8878 11.6455 53.7106 11.768C53.5334 11.8906 53.3423 11.9922 53.1368 12.0724C52.9257 12.1525 52.7017 12.1926 52.476 12.1907C51.8583 12.1907 51.2887 12.0755 50.7676 11.8437C50.2606 11.6206 49.8042 11.297 49.4259 10.8925C49.0498 10.4896 48.7563 10.0154 48.5457 9.47021C48.3336 8.92502 48.2289 8.33874 48.2289 7.71174C48.2289 7.08008 48.3336 6.49225 48.5457 5.94861C48.7456 5.42404 49.0444 4.94277 49.4259 4.53098C49.8036 4.12648 50.2602 3.8038 50.7676 3.58292C51.2887 3.35414 51.8583 3.23898 52.476 3.23898C52.7261 3.23898 52.9549 3.27543 53.1608 3.34794C53.3604 3.41686 53.5506 3.51052 53.7269 3.62674C53.8968 3.7419 54.0546 3.86908 54.1969 4.01294C54.3403 4.15525 54.4757 4.296 54.6028 4.43249V1.31494C54.6028 1.16992 54.6482 1.04739 54.7358 0.947348C54.825 0.847307 54.9569 0.797287 55.1345 0.797287H56.6688C56.7277 0.797287 56.7898 0.810858 56.8565 0.835287C56.9216 0.860879 56.9821 0.895777 57.0368 0.941144C57.0911 0.986511 57.1368 1.04119 57.1702 1.10478C57.2051 1.16837 57.2218 1.23816 57.2218 1.31533V11.509C57.2218 11.8588 57.0368 12.0344 56.6688 12.0344H55.3326C55.2419 12.0344 55.1709 12.0228 55.1209 11.9995C55.0715 11.9776 55.0283 11.9439 54.9949 11.9014C54.9567 11.8514 54.9257 11.7963 54.9026 11.7378C54.8754 11.6727 54.8421 11.5955 54.801 11.509L54.6028 10.9774ZM50.6827 7.71174C50.6827 8.01147 50.7296 8.29182 50.8222 8.55394C50.9096 8.80412 51.0453 9.03468 51.2216 9.23251C51.3946 9.42329 51.602 9.5749 51.8444 9.68541C52.0886 9.79747 52.3581 9.85214 52.6532 9.85214C52.9346 9.85424 53.2136 9.80115 53.4745 9.69588C53.7245 9.5964 53.9529 9.4493 54.1469 9.26276C54.3391 9.0758 54.4951 8.85496 54.6071 8.61133C54.7232 8.35835 54.7891 8.08522 54.801 7.80712V7.71174C54.8012 7.14176 54.5795 6.5941 54.1829 6.18476C53.9892 5.98348 53.7577 5.82245 53.5016 5.71092C53.2344 5.59309 52.9452 5.5336 52.6532 5.53643C52.3581 5.53643 52.0883 5.59459 51.8444 5.71092C51.606 5.82362 51.3939 5.98519 51.222 6.18514C51.0466 6.38982 50.911 6.62549 50.8222 6.88C50.7289 7.14732 50.6817 7.42858 50.6827 7.71174V7.71174ZM59.0349 1.32269C59.0349 1.17729 59.071 1.05476 59.1435 0.954716C59.2164 0.854675 59.342 0.805042 59.5196 0.805042H61.19C61.2354 0.805042 61.2823 0.816675 61.3323 0.842654C61.3828 0.867083 61.4293 0.901593 61.4719 0.947348C61.5158 0.992716 61.5522 1.04739 61.5805 1.11098C61.6111 1.17457 61.6263 1.24553 61.6263 1.32269V11.509C61.6263 11.6816 61.5762 11.8134 61.4793 11.9014C61.3808 11.9906 61.2552 12.0344 61.1009 12.0344H59.5192C59.342 12.0344 59.2168 11.9906 59.1439 11.9014C59.071 11.8134 59.0345 11.6816 59.0345 11.509L59.0349 1.32269ZM70.5159 10.9987C70.1209 11.3639 69.664 11.6556 69.1665 11.8603C68.6663 12.0678 68.1363 12.1709 67.5775 12.1709C66.9548 12.1709 66.3673 12.0573 65.8129 11.8301C65.2701 11.6114 64.7744 11.2906 64.3526 10.8851C63.9323 10.4802 63.5944 9.99776 63.3576 9.46439C63.1121 8.91882 62.9892 8.32516 62.9892 7.68459C62.9892 7.28443 63.0381 6.89667 63.1366 6.52133C63.2335 6.14714 63.3727 5.79584 63.5515 5.46857C63.7316 5.14147 63.9513 4.83778 64.2056 4.56433C64.7223 4.01264 65.3787 3.61119 66.1052 3.40261C66.4775 3.29327 66.8714 3.23898 67.2852 3.23898C67.6621 3.23898 68.0273 3.289 68.3833 3.38904C69.0826 3.58492 69.7205 3.95547 70.2371 4.46584C70.493 4.71629 70.7174 4.99703 70.9052 5.30184C71.0914 5.60312 71.2352 5.92612 71.3384 6.26967C71.44 6.61206 71.4911 6.96647 71.4911 7.33018C71.4911 7.56633 71.4884 7.75865 71.4807 7.90872C71.4745 8.05878 71.44 8.1782 71.376 8.26778C71.3124 8.35541 71.2065 8.41745 71.058 8.4508C70.9111 8.48569 70.6931 8.50237 70.4066 8.50237H65.4976C65.5434 8.79318 65.6356 9.03708 65.7749 9.23251C65.9129 9.42794 66.0734 9.58382 66.2549 9.69898C66.4371 9.81531 66.631 9.89751 66.8354 9.94714C67.0245 9.99552 67.2187 10.021 67.4139 10.0231C67.5775 10.0231 67.7454 10.0065 67.918 9.97157C68.0883 9.93909 68.2559 9.89359 68.4193 9.83547C68.5727 9.7826 68.7212 9.7167 68.8633 9.63849C68.9967 9.56249 69.1057 9.48378 69.1875 9.40196C69.26 9.34302 69.3224 9.2992 69.3736 9.27012C69.4247 9.24035 69.4828 9.22469 69.5419 9.22476C69.6008 9.22476 69.6617 9.24608 69.7222 9.2868C69.7842 9.3279 69.8525 9.38684 69.9296 9.46439L70.652 10.2822C70.7024 10.3411 70.7338 10.3942 70.7474 10.4427C70.7614 10.4896 70.7688 10.5396 70.7688 10.5897C70.7704 10.6741 70.7438 10.7567 70.6931 10.8242C70.6427 10.8894 70.5842 10.9483 70.5159 10.9987V10.9987ZM67.2367 5.31851C67.0595 5.31851 66.8881 5.35341 66.7218 5.42476C66.5566 5.49455 66.4003 5.588 66.2549 5.70627C66.1093 5.82532 65.9778 5.96062 65.8629 6.10953C65.7525 6.25137 65.6576 6.40463 65.5798 6.5667H69.065C68.9731 6.39594 68.8693 6.2319 68.7544 6.0758C68.6445 5.9278 68.5162 5.79449 68.3724 5.67912C68.225 5.56378 68.0592 5.47411 67.8819 5.4139C67.697 5.35031 67.4821 5.31851 67.2367 5.31851V5.31851Z" fill="white"/>
</svg>
